<?xml version="1.0" standalone="no"?>
<!DOCTYPE svg PUBLIC "-//W3C//DTD SVG 20010904//EN"
 "http://www.w3.org/TR/2001/REC-SVG-20010904/DTD/svg10.dtd">
<svg version="1.0" xmlns="http://www.w3.org/2000/svg"
 width="710.000000pt" height="654.000000pt" viewBox="0 0 710.000000 654.000000"
 preserveAspectRatio="xMidYMid meet">

<g transform="translate(0.000000,654.000000) scale(0.100000,-0.100000)"
fill="#000000" stroke="none">
<path d="M2990 6025 c-397 -49 -765 -186 -1100 -409 -175 -118 -268 -193 -410
-336 -441 -441 -717 -1026 -781 -1654 -15 -155 -7 -543 16 -686 160 -1024 858
-1858 1810 -2163 281 -90 512 -121 840 -114 249 5 369 21 583 77 338 88 681
261 962 486 109 87 317 295 404 404 247 309 448 726 531 1102 46 213 57 304
62 553 6 260 -7 418 -48 617 -235 1137 -1144 1993 -2257 2123 -154 18 -465 18
-612 0z m719 -95 c930 -165 1669 -806 1988 -1725 36 -104 80 -283 104 -425 27
-159 37 -531 19 -707 -52 -512 -252 -1000 -577 -1403 -353 -439 -878 -763
-1428 -880 -308 -66 -707 -68 -1010 -5 -764 159 -1408 664 -1760 1380 -101
205 -145 321 -195 519 -64 253 -75 353 -75 666 0 312 11 410 75 665 49 196 93
313 195 520 382 777 1105 1301 1945 1410 165 22 560 14 719 -15z"/>
<path d="M1840 4960 c-105 -18 -139 -29 -186 -60 -60 -41 -124 -101 -124 -116
0 -6 -6 -17 -14 -23 -8 -7 -29 -49 -48 -94 l-33 -82 0 -885 0 -885 34 -80 c18
-44 40 -84 47 -88 8 -4 14 -13 14 -18 0 -13 62 -89 73 -89 5 0 28 -14 53 -31
24 -16 70 -40 102 -52 55 -21 73 -21 620 -25 l562 -3 0 -190 0 -189 -146 0
c-88 0 -154 -4 -167 -11 -44 -23 -67 -52 -67 -85 0 -48 9 -63 51 -84 37 -19
63 -20 704 -20 641 0 667 1 704 20 42 21 51 36 51 84 0 33 -23 62 -67 85 -13
7 -78 11 -162 11 l-141 0 0 189 0 190 558 3 557 3 76 33 c42 18 85 42 94 52
10 11 24 20 31 20 11 0 25 14 95 99 33 39 61 102 75 166 10 47 13 248 13 900
0 861 -2 915 -39 985 -45 85 -145 190 -218 229 -87 46 -32 45 -1592 47 -806 1
-1485 -2 -1510 -6z m3023 -223 c67 -41 112 -97 131 -166 14 -51 16 -151 16
-872 0 -953 6 -894 -99 -991 -58 -53 -66 -57 -124 -63 -34 -3 -721 -5 -1527
-3 l-1465 3 -46 32 c-56 39 -96 90 -120 154 -18 47 -19 94 -19 865 0 555 3
829 11 857 24 94 103 176 199 207 14 5 693 8 1510 7 l1485 -2 48 -28z m-1363
-2497 l0 -190 -185 0 -185 0 0 190 0 190 185 0 185 0 0 -190z"/>
</g>
</svg>
